<svg width="394" height="48" viewBox="0 0 394 48" fill="none" xmlns="http://www.w3.org/2000/svg">
<path d="M32.02 4.40001V46.78H30.47L30.21 38.78C28.9087 41.4191 26.879 43.6304 24.3609 45.1526C21.8428 46.6748 18.9415 47.4443 16 47.37C6.85 47.37 0 40.37 0 31.11C0 21.85 6.81 14.84 16 14.84C18.9233 14.7622 21.8084 15.5184 24.3177 17.0201C26.8271 18.5218 28.857 20.707 30.17 23.32V4.32001L32.02 4.40001ZM30.25 31.12C30.25 22.79 24.25 16.67 16.1 16.67C7.95 16.67 1.92 22.86 1.92 31.12C1.92 39.38 8.01 45.58 16.1 45.58C24.19 45.58 30.25 39.45 30.25 31.12Z" fill="white"/>
<path d="M71.7502 31.69H42.5202C42.8002 39.69 48.6302 45.57 56.3802 45.57C58.9748 45.6073 61.5258 44.8999 63.7306 43.5316C65.9355 42.1633 67.7018 40.1915 68.8202 37.85H70.8202C67.8202 44.04 62.8202 47.39 56.4002 47.39C47.4702 47.39 40.7002 40.39 40.7002 31.08C40.7002 21.77 47.4702 14.86 56.4002 14.86C65.3302 14.86 71.8002 21.86 71.8002 30.86C71.7802 31.15 71.7702 31.44 71.7502 31.69ZM56.3802 16.64C48.8102 16.64 43.0702 22.23 42.5502 29.94H69.9502C69.4802 22.01 63.7402 16.64 56.3802 16.64Z" fill="white"/>
<path d="M106.54 28.25V46.78H104.68V28.57C104.68 21.11 100.62 16.57 93.9097 16.57C90.7692 16.6374 87.7782 17.9245 85.5701 20.1587C83.362 22.3929 82.1102 25.3989 82.0797 28.54V46.78H80.2197V15.47H81.6897L82.0197 22.69C83.1091 20.3535 84.8419 18.3759 87.0151 16.9891C89.1883 15.6023 91.7118 14.8638 94.2897 14.86C101.81 14.86 106.54 20.18 106.54 28.25Z" fill="white"/>
<path d="M132.61 45.03V46.8H128.51C122.68 46.8 119.12 43.2 119.12 37.27V17.16H111.9V15.52H119.08V6.26001H120.94V15.52H132.31V17.16H120.98V37.16C120.98 42.16 123.78 44.99 128.67 44.99L132.61 45.03Z" fill="white"/>
<path d="M167.97 15.47V46.79H166.35L166.15 38.61C164.873 41.3011 162.842 43.5634 160.303 45.122C157.764 46.6806 154.828 47.4685 151.85 47.39C142.75 47.39 135.85 40.39 135.85 31.13C135.85 21.87 142.73 14.86 151.85 14.86C154.83 14.7785 157.769 15.5663 160.308 17.1272C162.847 18.6881 164.877 20.9546 166.15 23.65L166.4 15.47H167.97ZM166.08 31.13C166.08 22.77 160.08 16.67 151.94 16.67C143.8 16.67 137.75 22.92 137.75 31.13C137.75 39.34 143.85 45.58 151.94 45.58C160.03 45.58 166.08 39.48 166.08 31.13Z" fill="white"/>
<path d="M179.37 4.40002H181.23V46.78H179.37V4.40002Z" fill="white"/>
<path d="M202.28 23.99C202.35 17.7177 204.866 11.7205 209.294 7.27663C213.721 2.83273 219.708 0.293481 225.98 0.200012C231.98 0.280012 237.2 2.63002 241.98 7.25002L236.69 14.47C233.57 11.41 229.83 9.54002 225.9 9.54002C222.11 9.66456 218.512 11.2374 215.846 13.9347C213.18 16.632 211.65 20.2486 211.57 24.04C211.57 32.17 218.82 38.46 225.87 38.46C230.06 38.46 233.69 36.22 236.72 33.25L241.98 40.67C237.98 44.67 233.06 47.67 226.15 47.67C219.858 47.652 213.826 45.1573 209.358 40.7258C204.891 36.2942 202.349 30.282 202.28 23.99Z" fill="white"/>
<path d="M270.87 46.78L256.34 25.2V46.78H247.17V1.13H262.08C270.61 1.13 277.6 7.70001 277.6 15.92C277.6 21.78 274.06 26.92 269.16 28.63L282.16 46.78H270.87ZM256.31 21.69H262.2C263.725 21.69 265.187 21.0842 266.266 20.0059C267.344 18.9275 267.95 17.465 267.95 15.94C267.95 14.415 267.344 12.9525 266.266 11.8741C265.187 10.7958 263.725 10.19 262.2 10.19H256.31V21.69Z" fill="white"/>
<path d="M314.17 40.41H295.91L292.99 46.78H283.08L304.88 0H305.17L327 46.78H317.08L314.17 40.41ZM310.6 32.6L305.08 20.39L299.5 32.6H310.6Z" fill="white"/>
<path d="M340.74 10.17V19.37H356.48V28.52H340.74V46.84H331.56V1.02002H359.08V10.17H340.74Z" fill="white"/>
<path d="M393.13 10.22H381.91V46.78H372.71V10.22H361.47V1.13H393.13V10.22Z" fill="white"/>
</svg>
